# AST/ASF file generated using VICON BodyLanguage
# -----------------------------------------------
:version 1.10
:name VICON
:units
  mass 1.0
  length 0.45
  angle deg
:documentation
   .ast/.asf automatically generated from VICON data using
   VICON BodyBuilder and BodyLanguage model FoxedUp or BRILLIANT.MOD
:root
   order TX TY TZ RX RY RZ
   axis XYZ
   position 0 0 0  
   orientation 0 0 0 
:bonedata
  begin
     id 1 
     name lhipjoint
     direction 0.692814 -0.645514 0.321437 
     length 2.38754 
     axis 0 0 0  XYZ
  end
  begin
     id 2 
     name lfemur
     direction 0.34202 -0.939693 0  
     length 6.41921  
     axis 0 0 20  XYZ
    dof rx ry rz
    limits (-160.0 20.0)
           (-70.0 70.0)
           (-60.0 70.0)
  end
  begin
     id 3 
     name ltibia
     direction 0.34202 -0.939693 0   
     length 6.98247   
     axis 0 0 20   XYZ
    dof rx
    limits (-10.0 170.0)
  end
  begin
     id 4 
     name lfoot
     direction 0.0947186 -0.260237 0.960888   
     length 1.83034   
     axis -90 7.62852e-016 20   XYZ
    dof rx rz
    limits (-45.0 90.0)
           (-70.0 20.0)
  end
  begin
     id 5 
     name ltoes
     direction 1.53538e-011 -4.21952e-011 1   
     length 0.920499   
     axis -90 7.62852e-016 20   XYZ
    dof rx
    limits (-90.0 20.0)
  end
  begin
     id 6 
     name rhipjoint
     direction -0.631686 -0.693949 0.345555   
     length 2.2209  
     axis 0 0 0  XYZ 
  end
  begin
     id 7 
     name rfemur
     direction -0.34202 -0.939693 0   
     length 6.49542   
     axis 0 0 -20   XYZ
    dof rx ry rz
    limits (-160.0 20.0)
           (-70.0 70.0)
           (-70.0 60.0)
  end
  begin
     id 8 
     name rtibia
     direction -0.34202 -0.939693 0   
     length 7.21712   
     axis 0 0 -20   XYZ
    dof rx
    limits (-10.0 170.0)
 end
 begin
     id 9 
     name rfoot
     direction -0.0825378 -0.226771 0.970444   
     length 1.89724  
     axis -90 -7.62852e-016 -20   XYZ
    dof rx rz
    limits (-45.0 90.0)
           (-20.0 70.0)
  end
  begin
     id 10 
     name rtoes
     direction -1.53515e-011 -4.22016e-011 1   
     length 0.955868   
     axis -90 -7.62852e-016 -20   XYZ
    dof rx
    limits (-90.0 20.0)
  end
  begin
     id 11 
     name lowerback
     direction -0.0104711 0.984802 -0.173368   
     length 1.84931   
     axis 0 0 0   XYZ
    dof rx ry rz
    limits (-20.0 45.0)
           (-30.0 30.0)
           (-30.0 30.0)
  end
  begin
     id 12 
     name upperback
     direction -0.00286433 0.999996 -0.000382853   
     length 1.85768   
     axis 0 0 0   XYZ
    dof rx ry rz
    limits (-20.0 45.0)
           (-30.0 30.0)
           (-30.0 30.0)
  end
  begin
     id 13 
     name thorax
     direction 0.00167534 0.996793 0.0800069   
     length 1.92   
     axis 0 0 0   XYZ
    dof rx ry rz
    limits (-20.0 45.0)
           (-30.0 30.0)
           (-30.0 30.0)
  end
  begin
     id 14 
     name lowerneck
     direction -0.0672491 0.995415 0.068018   
     length 1.58923   
     axis 0 0 0   XYZ
    dof rx ry rz
    limits (-20.0 45.0)
           (-30.0 30.0)
           (-30.0 30.0)
  end
  begin
     id 15 
     name upperneck
     direction 0.0958019 0.982476 -0.159884   
     length 1.60189   
     axis 0 0 0   XYZ
    dof rx ry rz
    limits (-20.0 45.0)
           (-30.0 30.0)
           (-30.0 30.0)
  end
  begin
     id 16
     name head
     direction 0.032989 0.997338 -0.0650226  
     length 1.61681  
     axis 0 0 0   XYZ
    dof rx ry rz
    limits (-20.0 45.0)
           (-30.0 30.0)
           (-30.0 30.0)
  end
  begin
     id 17 
     name lclavicle
     direction 0.954279 0.298875 -0.00496069  
     length 2.99449  
     axis 0 0 0   XYZ
    dof ry rz
    limits (-20.0 10.0)
           (0.0 20.0)
  end
  begin
     id 18 
     name lhumerus
     direction 1 -4.48985e-011 -4.2057e-027   
     length 4.79185   
     axis 180 -30 -90   XYZ
    dof rx ry rz
    limits (-60.0 90.0)
           (-90.0 90.0)
           (-90.0 90.0)
  end
  begin
     id 19
     name lradius
     direction 1 -4.48945e-011 1.15441e-028   
     length 2.65553   
     axis 180 -30 -90   XYZ
    dof rx
    limits (-10.0 170.0)
  end
  begin
     id 20
     name lwrist
     direction 1 -4.4899e-011 4.8894e-028   
     length 1.32777   
     axis -2.56392e-016 90 90   XYZ
    dof ry
    limits (-180.0 0.0)
 end
  begin
     id 21 
     name lhand
     direction 1 -4.48908e-011 9.7788e-028   
     length 0.743904   
     axis -6.23971e-016 90 90   XYZ
    dof rx rz
    limits (-90.0 90.0)
           (-45.0 45.0)
  end
  begin
     id 22 
     name lfingers
     direction 1 -4.49068e-011 1.95576e-027   
     length 0.599754   
     axis -1.24794e-015 90 90   XYZ
    dof rx
    limits (0.0 90.0)
  end
  begin
     id 23
     name lthumb
     direction 0.707107 -6.34883e-011 0.707107   
     length 0.861131   
     axis -90 45 2.85299e-015   XYZ
    dof rx rz
    limits (-45.0 45.0)
           (-45.0 45.0)
  end
  begin
     id 24 
     name rclavicle
     direction -0.957921 0.286916 0.00811568   
     length 3.06817  
     axis 0 0 0   XYZ 
    dof ry rz
    limits (-10.0 20.0)
           (-20.0 0.0)
  end
  begin
     id 25 
     name rhumerus
     direction -1 -4.48971e-011 -3.07942e-027  
     length 4.77254   
     axis 180 30 90   XYZ
    dof rx ry rz
    limits (-90.0 60.0)
           (-90.0 90.0)
           (-90.0 90.0)
  end
  begin
     id 26 
     name rradius
     direction -1 -4.48957e-011 -9.6815e-028   
     length 2.75995   
     axis 180 30 90   XYZ
    dof rx
    limits (-10.0 170.0)
  end
  begin
     id 27 
     name rwrist
     direction -1 -4.48979e-011 4.8894e-028   
     length 1.37997   
     axis -2.56392e-016 -90 -90   XYZ
    dof ry
    limits (-180.0 0.0)
  end
  begin
     id 28
     name rhand
     direction -1 -4.48906e-011 9.7788e-028   
     length 0.701619   
     axis -6.23971e-016 -90 -90   XYZ
    dof rx rz
    limits (-90.0 90.0)
           (-45.0 45.0)
  end
  begin
     id 29
     name rfingers
     direction -1 -4.49018e-011 1.95576e-027   
     length 0.565663   
     axis -1.24794e-015 -90 -90   XYZ
    dof rx
    limits (0.0 90.0)
  end
  begin
     id 30
     name rthumb
     direction -0.707107 -6.34881e-011 0.707107   
     length 0.812183   
     axis -90 -45 -2.85299e-015   XYZ
    dof rx rz
    limits (-45.0 45.0)
           (-45.0 45.0)
  end
:hierarchy
  begin
    root lhipjoint rhipjoint lowerback
    lhipjoint lfemur
    lfemur ltibia
    ltibia lfoot
    lfoot ltoes
    rhipjoint rfemur
    rfemur rtibia
    rtibia rfoot
    rfoot rtoes
    lowerback upperback
    upperback thorax
    thorax lowerneck lclavicle rclavicle
    lowerneck upperneck
    upperneck head
    lclavicle lhumerus
    lhumerus lradius
    lradius lwrist
    lwrist lhand lthumb
    lhand lfingers
    rclavicle rhumerus
    rhumerus rradius
    rradius rwrist
    rwrist rhand rthumb
    rhand rfingers
  end

#!OML:ASF F:\VICON\USERDATA\INSTALL\rory3\rory3.ASF
:FULLY-SPECIFIED
:DEGREES
534
root 0.294354 16.067 -0.400443 1.45753 -3.33574 -0.519566
lowerback 9.97206 -2.6398 -3.59612
upperback 1.22716 -3.84834 1.09786
thorax -3.98985 -1.84599 3.66532
lowerneck 5.69855 -6.08224 -12.8711
upperneck 4.17092 -9.28753 15.4702
head 1.60793 -4.81801 6.76305
rclavicle 5.59082e-014 2.48481e-015
rhumerus -22.5409 -39.7433 21.8991
rradius 127.366
rwrist -71.5347
rhand 9.55892 10.949
rfingers 7.12502
rthumb 34.7079 -15.6748
lclavicle 5.59082e-014 2.48481e-015
lhumerus -88.2305 -24.2883 99.9991
lradius 74.2317
lwrist 23.495
lhand 5.4079 17.9598
lfingers 7.12502
lthumb 30.759 45.407
rfemur -7.1005 14.2371 16.6304
rtibia 21.2425
rfoot -11.771 -10.3841
rtoes -10.5356
lfemur -1.58554 -7.61543 -16.0202
ltibia 12.9801
lfoot -9.78397 5.41859
ltoes -5.73818
535
root 0.305429 16.0654 -0.410538 1.45189 -2.91712 -0.679485
lowerback 10.2899 -2.55948 -3.47603
upperback 1.19907 -3.71352 1.6626
thorax -4.17716 -1.77241 4.19256
lowerneck 5.90829 -6.47201 -12.9763
upperneck 3.6306 -9.76511 14.9814
head 1.47156 -5.06811 6.62195
rclavicle 1.06474e-014 -3.13086e-015
rhumerus -24.4002 -41.7322 23.2462
rradius 126.204
rwrist -72.1629
rhand 8.63751 10.9169
rfingers 7.12502
rthumb 33.8329 -15.9037
lclavicle 1.06474e-014 -3.13086e-015
lhumerus -88.7398 -24.9213 99.3929
lradius 75.3301
lwrist 24.0297
lhand 5.1952 17.7582
lfingers 7.12502
lthumb 30.5561 45.2433
rfemur -7.02646 14.005 16.7962
rtibia 21.2126
rfoot -11.7643 -10.6388
rtoes -10.565
lfemur -2.02384 -7.64299 -15.8386
ltibia 13.5439
lfoot -9.74936 4.97676
ltoes -6.10508
536
root 0.317394 16.0621 -0.41814 1.47235 -2.50415 -0.762144
lowerback 10.4984 -2.4859 -3.39077
upperback 1.1966 -3.58793 2.18173
thorax -4.27899 -1.7058 4.68685
lowerneck 5.89092 -6.85964 -13.0108
upperneck 3.29138 -10.2321 14.4015
head 1.41852 -5.29983 6.43026
rclavicle 3.76697e-014 1.63003e-014
rhumerus -26.2122 -43.6183 24.3672
rradius 125.069
rwrist -72.6885
rhand 7.6605 10.6908
rfingers 7.12502
rthumb 32.9042 -16.3296
lclavicle 3.76697e-014 1.63003e-014
lhumerus -89.1676 -25.5803 98.5558
lradius 76.4783
lwrist 24.6402
lhand 4.91819 17.5105
lfingers 7.12502
lthumb 30.2919 45.0445
rfemur -6.99209 13.7512 16.8659
rtibia 21.2119
rfoot -11.7782 -10.8789
rtoes -10.7506
lfemur -2.58853 -7.59882 -15.7427
ltibia 14.3053
lfoot -9.75529 4.43219
ltoes -6.91286
537
root 0.327543 16.0576 -0.427733 1.54857 -2.02511 -0.882376
lowerback 10.6551 -2.44254 -3.24659
upperback 1.2407 -3.49428 2.67102
thorax -4.30709 -1.65908 5.1172
lowerneck 5.52508 -7.21995 -12.9351
upperneck 3.12367 -10.6396 13.8912
head 1.45814 -5.48694 6.22739
rclavicle -3.75206e-014 4.13472e-014
rhumerus -28.1247 -45.4157 25.4819
rradius 123.875
rwrist -73.3696
rhand 6.65162 10.6691
rfingers 7.12502
rthumb 31.944 -16.5481
lclavicle -3.75206e-014 4.13472e-014
lhumerus -89.3937 -26.3489 97.4219
lradius 77.6986
lwrist 25.3888
lhand 4.67891 17.3386
lfingers 7.12502
lthumb 30.0637 44.9144
rfemur -7.03226 13.4786 16.9635
rtibia 21.2333
rfoot -11.918 -11.1178
rtoes -10.6808
lfemur -3.32648 -7.49369 -15.5822
ltibia 15.2324
lfoot -9.8156 3.81781
ltoes -7.44993
538
root 0.337127 16.0528 -0.443746 1.66623 -1.46648 -1.08163
lowerback 10.9251 -2.41221 -3.03365
upperback 1.20967 -3.40789 3.20584
thorax -4.47862 -1.61094 5.57012
lowerneck 5.1907 -7.57617 -12.8773
upperneck 2.92837 -11.0418 13.3199
head 1.4783 -5.67341 6.01077
rclavicle -3.56818e-014 2.94201e-014
rhumerus -30.153 -47.002 26.7611
rradius 122.674
rwrist -74.2346
rhand 5.76252 10.6207
rfingers 7.12502
rthumb 31.097 -16.7622
lclavicle -3.56818e-014 2.94201e-014
lhumerus -89.646 -27.0838 96.2395
lradius 78.9999
lwrist 26.1605
lhand 4.32102 17.3803
lfingers 7.12502
lthumb 29.7221 45.0175
rfemur -7.16184 13.1479 17.1439
rtibia 21.3325
rfoot -12.0702 -11.3876
rtoes -10.1713
lfemur -4.21794 -7.45508 -15.3171
ltibia 16.2742
lfoot -9.87962 3.19913
ltoes -7.18613
539
root 0.347947 16.048 -0.45877 1.7709 -0.963219 -1.36604
lowerback 11.2086 -2.35954 -2.68336
upperback 1.09481 -3.27079 3.7322
thorax -4.7617 -1.53492 5.93595
lowerneck 5.19561 -7.89773 -12.7817
upperneck 2.64079 -11.4223 12.6541
head 1.4023 -5.86032 5.77963
rclavicle -1.78906e-015 1.59028e-015
rhumerus -32.2056 -48.2808 28.1268
rradius 121.421
rwrist -75.1394
rhand 4.76488 10.6173
rfingers 7.12502
rthumb 30.1457 -16.9435
lclavicle -1.78906e-015 1.59028e-015
lhumerus -89.9905 -27.829 95.017
lradius 80.1576
lwrist 26.859
lhand 3.85779 17.2697
lfingers 7.12502
lthumb 29.2799 44.985
rfemur -7.32803 12.7445 17.4129
rtibia 21.5054
rfoot -12.1434 -11.5879
rtoes -10.1887
lfemur -5.14771 -7.47969 -14.9837
ltibia 17.4583
lfoot -10.0716 2.7242
ltoes -7.55833
540
root 0.35882 16.038 -0.473974 1.86074 -0.538593 -1.52673
lowerback 11.4526 -2.30225 -2.44517
upperback 0.979012 -3.14007 4.18678
thorax -5.0226 -1.46099 6.28937
lowerneck 5.37215 -8.17673 -12.6041
upperneck 2.23767 -11.754 11.9659
head 1.24863 -6.02657 5.5452
rclavicle -1.77912e-014 -2.06736e-014
rhumerus -34.1224 -49.4499 29.3048
rradius 120.082
rwrist -75.8601
rhand 3.69957 10.6601
rfingers 7.12502
rthumb 29.1288 -17.0814
lclavicle -1.77912e-014 -2.06736e-014
lhumerus -90.2592 -28.6049 93.6226
lradius 81.115
lwrist 27.7097
lhand 3.27814 16.8678
lfingers 7.12502
lthumb 28.7263 44.6783
rfemur -7.55372 12.3446 17.5196
rtibia 21.7522
rfoot -12.2561 -11.6444
rtoes -10.3928
lfemur -6.10906 -7.53221 -14.8018
ltibia 18.7448
lfoot -10.3352 2.31297
ltoes -7.8474
541
root 0.368032 16.0263 -0.494514 1.97772 -0.0357675 -1.64817
lowerback 11.7577 -2.27105 -2.29743
upperback 0.81773 -3.05054 4.64763
thorax -5.35707 -1.40179 6.71603
lowerneck 5.65276 -8.40207 -12.523
upperneck 1.82829 -12.0373 11.3855
head 1.07931 -6.17106 5.36927
rclavicle -2.5842e-014 1.59028e-014
rhumerus -35.9481 -50.4757 30.3858
rradius 118.705
rwrist -76.3861
rhand 2.71407 10.5599
rfingers 7.12502
rthumb 28.1873 -17.3407
lclavicle -2.5842e-014 1.59028e-014
lhumerus -90.4425 -29.3449 92.0888
lradius 82.0571
lwrist 28.7
lhand 2.8875 16.5947
lfingers 7.12502
lthumb 28.353 44.4678
rfemur -7.81647 11.8933 17.5754
rtibia 22.0114
rfoot -12.3847 -11.6926
rtoes -10.2088
lfemur -7.21821 -7.61246 -14.6396
ltibia 20.1476
lfoot -10.5596 1.86002
ltoes -8.13885
542
root 0.374347 16.0132 -0.516549 2.11235 0.522953 -1.84859
lowerback 12.1021 -2.25152 -2.12971
upperback 0.620027 -2.96429 5.17501
thorax -5.75152 -1.34029 7.21228
lowerneck 5.91384 -8.56685 -12.6126
upperneck 1.46644 -12.2575 10.9025
head 0.933834 -6.28319 5.25123
rclavicle 3.57812e-015 2.06736e-014
rhumerus -37.6836 -51.2205 31.4476
rradius 117.357
rwrist -76.8753
rhand 1.6295 10.4189
rfingers 7.12502
rthumb 27.1502 -17.6481
lclavicle 3.57812e-015 2.06736e-014
lhumerus -90.5861 -30.0707 90.5797
lradius 82.9515
lwrist 29.6924
lhand 2.46884 16.4023
lfingers 7.12502
lthumb 27.9529 44.3413
rfemur -8.10843 11.3964 17.732
rtibia 22.2987
rfoot -12.5302 -11.7346
rtoes -10.3116
lfemur -8.4369 -7.6794 -14.3603
ltibia 21.6495
lfoot -10.736 1.25724
ltoes -8.48936
543
root 0.380876 15.9969 -0.537525 2.10613 1.02804 -2.40598
lowerback 12.5883 -2.21857 -1.57171
upperback 0.464016 -2.79326 5.7636
thorax -6.21182 -1.2444 7.5485
lowerneck 5.94374 -8.76133 -12.6163
upperneck 1.24397 -12.4974 10.3092
head 0.855228 -6.39678 5.07197
rclavicle -3.33958e-014 5.56597e-014
rhumerus -39.5425 -51.7144 32.6027
rradius 115.984
rwrist -77.3227
rhand 0.370641 10.3709
rfingers 7.12502
rthumb 25.9453 -17.8784
lclavicle -3.33958e-014 5.56597e-014
lhumerus -90.6507 -30.869 88.9819
lradius 83.7457
lwrist 30.7397
lhand 2.03827 16.0479
lfingers 7.12502
lthumb 27.5412 44.0532
rfemur -8.28042 10.9514 18.311
rtibia 22.6012
rfoot -12.6607 -11.7307
rtoes -10.5125
lfemur -9.5301 -7.60938 -13.7123
ltibia 23.2086
lfoot -11.0017 0.630809
ltoes -9.23957
544
root 0.390404 15.9774 -0.559303 2.07855 1.54712 -2.96922
lowerback 13.1272 -2.21677 -0.974911
upperback 0.320696 -2.64603 6.32509
thorax -6.69019 -1.16201 7.84342
lowerneck 5.84363 -8.95955 -12.4863
upperneck 1.01303 -12.7207 9.58514
head 0.7742 -6.49631 4.82942
rclavicle 1.2921e-014 3.18055e-015
rhumerus -41.3206 -52.168 33.6556
rradius 114.48
rwrist -77.5072
rhand -0.630334 10.2206
rfingers 7.12502
rthumb 24.9865 -18.1655
lclavicle 1.2921e-014 3.18055e-015
lhumerus -90.5446 -31.6232 87.2141
lradius 84.4221
lwrist 31.9104
lhand 1.47866 15.7561
lfingers 7.12502
lthumb 27.0059 43.8456
rfemur -8.475 10.3939 18.8741
rtibia 22.9619
rfoot -12.7658 -11.6713
rtoes -10.4908
lfemur -10.5899 -7.53392 -13.0876
ltibia 24.7382
lfoot -11.2712 0.0765182
ltoes -9.05184
545
root 0.396091 15.9659 -0.582679 2.24948 2.06041 -3.08746
lowerback 13.4727 -2.19477 -0.912542
upperback 0.176144 -2.5568 6.78705
thorax -7.03561 -1.09697 8.33997
lowerneck 5.49509 -9.11993 -12.3869
upperneck 0.879601 -12.876 8.92695
head 0.758111 -6.55808 4.59863
rclavicle 4.90998e-014 1.59028e-014
rhumerus -42.8886 -52.6812 34.3934
rradius 112.944
rwrist -77.3631
rhand -1.59359 10.0036
rfingers 7.12502
rthumb 24.0631 -18.5077
lclavicle 4.90998e-014 1.59028e-014
lhumerus -90.0893 -32.3075 85.1712
lradius 84.9576
lwrist 33.0895
lhand 1.0104 15.628
lfingers 7.12502
lthumb 26.5578 43.7861
rfemur -8.98173 9.7968 18.9145
rtibia 23.4911
rfoot -12.9362 -11.5509
rtoes -10.6094
lfemur -11.8258 -7.64561 -12.8895
ltibia 26.1677
lfoot -11.427 -0.402621
ltoes -8.04021
546
root 0.399421 15.9554 -0.60601 2.48368 2.4818 -3.03791
lowerback 13.7189 -2.13898 -1.07547
upperback 0.062894 -2.46334 7.2069
thorax -7.28677 -1.02514 8.91638
lowerneck 5.03788 -9.24221 -12.3842
upperneck 0.722369 -12.9758 8.3909
head 0.759127 -6.59189 4.4156
rclavicle -1.98785e-015 -6.99722e-014
rhumerus -44.3191 -53.1706 34.9039
rradius 111.42
rwrist -76.9495
rhand -2.75339 9.7631
rfingers 7.12502
rthumb 22.9506 -18.8908
lclavicle -1.98785e-015 -6.99722e-014
lhumerus -89.4033 -32.8232 82.771
lradius 85.4578
lwrist 34.1573
lhand 0.808984 15.6746
lfingers 7.12502
lthumb 26.365 43.8617
rfemur -9.68751 9.31552 18.7703
rtibia 24.2463
rfoot -13.2262 -11.4299
rtoes -10.6249
lfemur -13.0382 -7.77948 -12.849
ltibia 27.4722
lfoot -11.5471 -0.835679
ltoes -7.735
